<?xml version="1.0" encoding="utf-8"?>
<!-- Generator: Adobe Illustrator 16.0.4, SVG Export Plug-In . SVG Version: 6.00 Build 0)  -->
<!DOCTYPE svg PUBLIC "-//W3C//DTD SVG 1.1//EN" "http://www.w3.org/Graphics/SVG/1.1/DTD/svg11.dtd">
<svg version="1.1" xmlns="http://www.w3.org/2000/svg" xmlns:xlink="http://www.w3.org/1999/xlink" x="0px" y="0px"
	 width="535.563px" height="178.125px" viewBox="0 0 535.563 178.125" enable-background="new 0 0 535.563 178.125"
	 xml:space="preserve">
<g id="Editable" display="none">
	<polygon display="inline" fill="#FFFFFF" stroke="#000000" stroke-width="3" stroke-miterlimit="10" points="455.5,78.5 455.5,1.5 
		1.5,1.5 1.5,99.625 264.5,99.625 264.5,176.625 537.063,176.625 537.063,78.5 	"/>
	<text transform="matrix(1 0 0 1 41.5762 75.5654)" display="inline" font-family="'JosefinSans-Light'" font-size="72">COMMENT</text>
	<text transform="matrix(1 0 0 1 302.5713 153.7451)" display="inline" font-family="'JosefinSans-SemiBold'" font-size="72">FAIRE</text>
</g>
<g id="Vect">
	<g>
		<polygon fill="#FFFFFF" points="455.5,78.5 455.5,1.5 1.5,1.5 1.5,99.625 264.5,99.625 264.5,176.625 534.063,176.625 
			534.063,78.5 		"/>
		<path d="M535.563,178.125H263v-77H0V0h457v77h78.563V178.125z M266,175.125h266.563V80H454V3H3v95.125h263V175.125z"/>
	</g>
	<g>
		<path d="M85.353,72.325c-1.681,1.057-3.708,1.957-6.084,2.7s-5.053,1.116-8.028,1.116c-3.888,0-7.416-0.684-10.584-2.052
			s-5.868-3.228-8.1-5.58c-2.232-2.351-3.961-5.087-5.185-8.208c-1.224-3.12-1.836-6.408-1.836-9.864
			c0-3.744,0.684-7.211,2.052-10.404c1.368-3.191,3.24-5.976,5.616-8.352s5.136-4.236,8.28-5.58
			c3.143-1.343,6.516-2.016,10.116-2.016c2.592,0,5.063,0.324,7.416,0.972c2.351,0.648,4.367,1.524,6.048,2.628
			c-0.288,0.432-0.504,0.781-0.648,1.044c-0.144,0.264-0.408,0.708-0.792,1.332c-1.681-1.055-3.563-1.847-5.651-2.376
			c-2.089-0.528-4.165-0.792-6.229-0.792c-3.217,0-6.24,0.612-9.072,1.836s-5.292,2.905-7.38,5.04
			c-2.088,2.136-3.744,4.62-4.968,7.452c-1.224,2.833-1.836,5.857-1.836,9.072c0,3.024,0.54,5.917,1.62,8.676
			c1.08,2.761,2.615,5.184,4.607,7.272c1.991,2.088,4.393,3.757,7.2,5.004c2.809,1.249,5.915,1.872,9.324,1.872
			c2.64,0,5.063-0.347,7.271-1.044c2.208-0.695,4.032-1.5,5.473-2.412L85.353,72.325z"/>
		<path d="M89.961,50.149c0-3.6,0.685-6.972,2.053-10.116c1.367-3.143,3.215-5.904,5.544-8.28c2.327-2.376,5.063-4.248,8.208-5.616
			c3.143-1.368,6.516-2.052,10.115-2.052c3.601,0,6.984,0.684,10.152,2.052c3.168,1.368,5.94,3.24,8.316,5.616
			s4.248,5.137,5.615,8.28c1.368,3.145,2.053,6.516,2.053,10.116s-0.685,6.973-2.053,10.116c-1.367,3.144-3.239,5.893-5.615,8.244
			c-2.376,2.353-5.148,4.212-8.316,5.58s-6.552,2.052-10.152,2.052c-3.6,0-6.973-0.684-10.115-2.052
			c-3.145-1.368-5.881-3.228-8.208-5.58c-2.329-2.351-4.177-5.1-5.544-8.244C90.646,57.122,89.961,53.75,89.961,50.149z
			 M92.913,50.221c0,3.168,0.6,6.156,1.8,8.964c1.199,2.808,2.845,5.256,4.933,7.344s4.511,3.744,7.271,4.968
			c2.76,1.224,5.725,1.836,8.893,1.836s6.167-0.612,9-1.836c2.831-1.224,5.303-2.88,7.416-4.968
			c2.111-2.088,3.779-4.536,5.004-7.344c1.224-2.808,1.836-5.82,1.836-9.036c0-3.168-0.612-6.167-1.836-9
			c-1.225-2.832-2.88-5.292-4.968-7.38c-2.089-2.088-4.536-3.744-7.345-4.968c-2.808-1.224-5.796-1.836-8.964-1.836
			s-6.156,0.612-8.964,1.836c-2.808,1.224-5.256,2.893-7.344,5.004c-2.088,2.112-3.733,4.572-4.933,7.38
			C93.513,43.994,92.913,47.006,92.913,50.221z"/>
		<path d="M153.896,22.357c1.775,2.689,3.744,5.58,5.904,8.676c2.159,3.096,4.319,6.192,6.479,9.288c2.16,3.096,4.259,6.097,6.3,9
			c2.04,2.905,3.876,5.508,5.508,7.812c0.576-0.815,1.392-1.991,2.448-3.528c1.056-1.536,2.269-3.3,3.636-5.292
			c1.368-1.991,2.845-4.127,4.429-6.408c1.584-2.279,3.179-4.572,4.788-6.876c1.607-2.304,3.179-4.547,4.716-6.732
			c1.535-2.184,2.952-4.164,4.248-5.94v53.208h-3.097V34.021c0-0.479,0.012-0.972,0.036-1.476s0.036-0.972,0.036-1.404
			c-1.681,2.304-3.468,4.836-5.364,7.596c-1.896,2.761-3.792,5.544-5.688,8.352c-1.896,2.808-3.721,5.533-5.472,8.172
			c-1.753,2.641-3.325,4.993-4.717,7.056c-0.863-1.152-1.933-2.616-3.203-4.392c-1.272-1.775-2.617-3.695-4.032-5.76
			c-1.417-2.063-2.869-4.188-4.356-6.372c-1.488-2.184-2.88-4.236-4.176-6.156c-1.296-1.919-2.437-3.636-3.42-5.148
			c-0.984-1.512-1.717-2.628-2.196-3.348c0,0.432,0.023,0.9,0.072,1.404c0.047,0.504,0.072,0.997,0.072,1.476v41.544h-2.952V22.357z
			"/>
		<path d="M218.336,22.357c1.775,2.689,3.744,5.58,5.904,8.676c2.159,3.096,4.319,6.192,6.479,9.288c2.16,3.096,4.259,6.097,6.3,9
			c2.04,2.905,3.876,5.508,5.508,7.812c0.576-0.815,1.392-1.991,2.448-3.528c1.056-1.536,2.269-3.3,3.636-5.292
			c1.368-1.991,2.845-4.127,4.429-6.408c1.584-2.279,3.179-4.572,4.788-6.876c1.607-2.304,3.179-4.547,4.716-6.732
			c1.535-2.184,2.952-4.164,4.248-5.94v53.208h-3.097V34.021c0-0.479,0.012-0.972,0.036-1.476s0.036-0.972,0.036-1.404
			c-1.681,2.304-3.468,4.836-5.364,7.596c-1.896,2.761-3.792,5.544-5.688,8.352c-1.896,2.808-3.721,5.533-5.472,8.172
			c-1.753,2.641-3.325,4.993-4.717,7.056c-0.863-1.152-1.933-2.616-3.203-4.392c-1.272-1.775-2.617-3.695-4.032-5.76
			c-1.417-2.063-2.869-4.188-4.356-6.372c-1.488-2.184-2.88-4.236-4.176-6.156c-1.296-1.919-2.437-3.636-3.42-5.148
			c-0.984-1.512-1.717-2.628-2.196-3.348c0,0.432,0.023,0.9,0.072,1.404c0.047,0.504,0.072,0.997,0.072,1.476v41.544h-2.952V22.357z
			"/>
		<path d="M282.775,75.565V24.662h31.176v2.736h-28.152v21.168h25.272v2.736h-25.272v21.456h29.16v2.808H282.775z"/>
		<path d="M369.246,24.662V77.87c-2.735-3.408-5.808-7.128-9.216-11.16c-3.408-4.032-6.853-8.136-10.332-12.312
			c-3.48-4.176-6.853-8.268-10.116-12.276c-3.265-4.007-6.145-7.668-8.64-10.98l-1.368-1.872l0.216,2.304v43.992h-3.023v-53.28
			c2.783,3.504,5.843,7.272,9.18,11.304c3.336,4.032,6.732,8.112,10.188,12.24c3.456,4.128,6.827,8.184,10.115,12.168
			c3.288,3.985,6.252,7.657,8.893,11.016l1.368,1.872l-0.217-2.304v-43.92H369.246z"/>
		<path d="M411.223,24.662v2.88H397.11v48.024h-2.952V27.542H380.19v-2.88H411.223z"/>
	</g>
	<g>
		<path d="M308.979,153.745v-52.2h31.248v7.272h-23.4v15.768h20.448v7.344h-20.448v21.816H308.979z"/>
		<path d="M377.164,153.745c-0.241-0.527-0.576-1.296-1.009-2.305c-0.432-1.008-0.924-2.17-1.476-3.491
			c-0.553-1.319-1.152-2.76-1.8-4.32c-0.648-1.56-1.309-3.179-1.98-4.86h-18.432l-6.192,14.977H338.5l23.256-54.648
			c0.288,0.674,0.803,1.896,1.548,3.672c0.743,1.777,1.631,3.9,2.664,6.373c1.031,2.473,2.184,5.209,3.456,8.207
			c1.271,3.001,2.567,6.037,3.888,9.108c1.32,3.072,2.616,6.097,3.889,9.072c1.271,2.977,2.436,5.712,3.491,8.208
			s1.956,4.62,2.7,6.371c0.744,1.754,1.26,2.965,1.548,3.637H377.164z M355.204,132.146h13.031
			c-0.673-1.584-1.308-3.107-1.907-4.572c-0.602-1.464-1.152-2.809-1.656-4.032s-0.948-2.292-1.332-3.204
			c-0.385-0.911-0.673-1.631-0.864-2.16c-0.048-0.096-0.156-0.432-0.324-1.008s-0.3-1.104-0.396-1.584
			c-0.097,0.48-0.241,1.008-0.432,1.584c-0.192,0.576-0.313,0.912-0.36,1.008L355.204,132.146z"/>
		<path d="M392.419,101.545h7.848v52.2h-7.848V101.545z"/>
		<path d="M411.082,153.745v-52.2h14.256c2.736,0,5.243,0.36,7.524,1.08c2.278,0.72,4.247,1.789,5.903,3.204
			c1.656,1.416,2.939,3.145,3.853,5.184c0.911,2.041,1.367,4.381,1.367,7.021c0,1.44-0.144,2.868-0.432,4.284
			s-0.756,2.784-1.404,4.104c-0.647,1.32-1.476,2.545-2.483,3.672c-1.008,1.129-2.232,2.077-3.672,2.844
			c1.919,3.024,4.007,6.373,6.264,10.045c2.256,3.672,4.536,7.26,6.84,10.764h-9.432c-0.961-1.487-1.957-3.048-2.988-4.68
			c-1.032-1.631-2.064-3.252-3.096-4.86c-1.033-1.607-2.041-3.191-3.024-4.752c-0.984-1.56-1.908-3.012-2.771-4.356h-1.44h-7.344
			v18.648H411.082z M419.002,127.681h7.128c1.919,0,3.528-0.324,4.824-0.972s2.315-1.451,3.06-2.412
			c0.744-0.96,1.271-1.991,1.584-3.096c0.312-1.104,0.468-2.112,0.468-3.024c0-0.911-0.156-1.908-0.468-2.988
			c-0.312-1.08-0.853-2.088-1.62-3.023c-0.769-0.936-1.788-1.715-3.06-2.34c-1.272-0.623-2.844-0.936-4.716-0.936h-7.2V127.681z"/>
		<path d="M454.297,153.745v-52.2h34.271v7.128h-26.352v15.264h23.472v7.272h-23.472v15.265h27.36v7.271H454.297z"/>
	</g>
</g>
<g id="Reperes" display="none">
	<rect x="266.063" y="132.266" display="inline" fill="#60B988" width="42.958" height="42.958"/>
	<rect x="489.585" y="132.266" display="inline" fill="#60B988" width="42.958" height="42.958"/>
	<rect x="489.585" y="80.266" display="inline" fill="#60B988" width="42.958" height="42.958"/>
	<rect x="411.21" y="3.321" display="inline" fill="#60B988" width="42.958" height="42.958"/>
	<rect x="3.21" y="55.321" display="inline" fill="#60B988" width="42.958" height="42.958"/>
</g>
</svg>
